<svg width="14" height="8" viewBox="0 0 14 8" fill="none" xmlns="http://www.w3.org/2000/svg">
<path fill-rule="evenodd" clip-rule="evenodd" d="M1.14543 0.645917C1.23923 0.551876 1.3666 0.499023 1.49943 0.499023C1.63226 0.499023 1.75962 0.551876 1.85343 0.645917L7.49943 6.29292L13.1454 0.645917C13.2719 0.519445 13.4562 0.470052 13.629 0.516344C13.8018 0.562636 13.9367 0.69758 13.983 0.870344C14.0293 1.04311 13.9799 1.22745 13.8534 1.35392L7.85343 7.35392C7.75962 7.44796 7.63226 7.50081 7.49943 7.50081C7.3666 7.50081 7.23923 7.44796 7.14543 7.35392L1.14543 1.35392C1.05139 1.26011 0.998535 1.13274 0.998535 0.999917C0.998535 0.86709 1.05139 0.739721 1.14543 0.645917Z" fill="white"/>
</svg>
