<svg width="8" height="14" viewBox="0 0 8 14" fill="none" xmlns="http://www.w3.org/2000/svg">
<path fill-rule="evenodd" clip-rule="evenodd" d="M1.14518 13.3541C1.05114 13.2603 0.998291 13.1329 0.998291 13.0001C0.998291 12.8673 1.05114 12.7399 1.14518 12.6461L6.79218 7.00008L1.14518 1.35408C1.01871 1.22761 0.96932 1.04327 1.01561 0.87051C1.0619 0.697746 1.19685 0.562802 1.36961 0.51651C1.54238 0.470218 1.72671 0.51961 1.85318 0.646083L7.85318 6.64608C7.94723 6.73989 8.00008 6.86726 8.00008 7.00008C8.00008 7.13291 7.94723 7.26028 7.85318 7.35408L1.85318 13.3541C1.75938 13.4481 1.63201 13.501 1.49918 13.501C1.36636 13.501 1.23899 13.4481 1.14518 13.3541Z" fill="#052C65"/>
</svg>
